<?xml version="1.0" standalone="no"?>
<!DOCTYPE svg PUBLIC "-//W3C//DTD SVG 20010904//EN"
 "http://www.w3.org/TR/2001/REC-SVG-20010904/DTD/svg10.dtd">
<svg version="1.0" xmlns="http://www.w3.org/2000/svg"
 width="512.000000pt" height="512.000000pt" viewBox="0 0 512.000000 512.000000"
 preserveAspectRatio="xMidYMid meet">
<metadata>
Created by potrace 1.14, written by Peter Selinger 2001-2017
</metadata>
<g transform="translate(0.000000,512.000000) scale(0.100000,-0.100000)"
fill="#000000" stroke="none">
<path d="M2415 4945 c-334 -58 -693 -353 -927 -763 -148 -258 -241 -525 -275
-792 -9 -67 -10 -300 -1 -355 18 -114 48 -230 78 -301 l18 -41 -152 -47 c-209
-66 -302 -103 -367 -147 -154 -104 -267 -267 -305 -440 -3 -13 -7 -33 -9 -44
-3 -11 -18 -81 -34 -155 -16 -74 -32 -146 -35 -160 -3 -14 -7 -34 -10 -45 -2
-11 -12 -56 -21 -100 -9 -44 -35 -159 -56 -255 -22 -96 -41 -184 -43 -195 -2
-11 -14 -65 -26 -120 -12 -55 -23 -109 -26 -120 -3 -19 -9 -45 -19 -90 -2 -11
-12 -54 -22 -95 -25 -110 -23 -232 7 -295 33 -70 65 -109 122 -151 82 -61 144
-74 340 -74 93 0 177 4 187 10 10 5 24 23 31 40 12 30 13 30 90 30 78 0 78 0
89 -30 6 -18 21 -34 36 -40 35 -13 2914 -14 2948 -1 14 5 31 23 38 40 14 31
15 31 91 31 75 0 78 -1 84 -25 12 -46 47 -55 228 -55 132 0 176 4 224 19 125
39 210 126 247 254 18 64 16 133 -9 247 -8 36 -42 191 -75 345 -34 154 -82
375 -107 490 -25 116 -47 219 -50 229 -2 11 -15 72 -29 136 -33 151 -35 161
-41 188 -10 49 -56 157 -90 213 -41 68 -160 192 -208 215 -17 9 -38 22 -46 29
-16 13 -136 64 -160 69 -8 1 -83 24 -165 50 l-150 48 36 112 c20 61 40 129 43
151 3 22 8 51 11 65 11 44 14 293 4 360 -20 144 -72 359 -108 445 -5 11 -17
40 -26 65 -32 81 -108 233 -154 310 -106 177 -186 278 -328 417 -172 168 -362
278 -558 324 -71 16 -238 19 -320 4z"/>
</g>
</svg>
